<?xml version="1.0"?>
<svg width="154" height="161" xmlns="http://www.w3.org/2000/svg" xmlns:svg="http://www.w3.org/2000/svg">
 <g>
  <title>Layer 1</title>
  <path id="svg_2" d="m46.830002,13.62c23.650002,-10.72 52.900002,-7 73.229996,9.099999c-1.959999,0.130001 -3.909996,0.310001 -5.860001,0.540001c0.150002,1.949999 0.310005,3.91 0.480003,5.860001c-4.260002,-3.450001 -9.099998,-6.240002 -14.099998,-8.440001c-0.590004,-0.110001 -1.770004,-0.33 -2.349998,-0.440001c0.089996,2.68 0.119995,5.57 -1.920006,7.620001c0.200005,0.18 0.610001,0.549999 0.82,0.74c-0.769997,-0.190001 -2.32,-0.550001 -3.099998,-0.74c-0.68,0.17 -2.029999,0.51 -2.699997,0.68c-0.440002,-0.200001 -1.330002,-0.610001 -1.770004,-0.820002c1.870003,-1.019999 4.07,-0.65 6.029999,-1.309999l0.580002,-0.42c0.419998,-0.789999 0.880005,-1.57 1.380005,-2.32c0.039993,-1.030001 0.129997,-3.08 0.169998,-4.110001c-21.669998,-8.16 -47.460003,-3.139999 -64.52,12.500002c-4.460001,3.98 -8.35,8.619999 -11.440001,13.73c4.690001,-1.370003 8.99,-3.91 12.530001,-7.27c0.099998,0.970001 0.200001,1.950001 0.290001,2.93c-3.760002,4.279999 -9.080002,6.32 -14.470001,7.579998c-1.880001,2.27 -2.67,5.240002 -3.85,7.900002c-0.83,2.119999 -1.49,4.310001 -2.070001,6.509998c-0.21,0.810001 -0.4,1.630001 -0.559999,2.450001c-0.62,2.669998 -1.01,5.400002 -1.190001,8.139999c-0.04,0.580002 -0.129999,1.75 -0.169999,2.330002c5.539999,-1.639999 10.629999,-4.489998 16.16,-6.110001c4.259998,0.330002 8.259998,-1.389999 12.459999,-1.730003c3.299999,-0.089996 5.59,-4.079994 9.040001,-2.529999c2.189999,0.830002 4.419998,0.450005 6.470001,-0.599998c0.68,0.400002 2.039997,1.190002 2.719997,1.590004c-3.099998,2.549995 -6.700001,1.299995 -10.149998,0.579994c-3.73,3.340004 -8.710003,3.050003 -13.27,4.150002c-3.23,0.870003 -6.740002,0.300003 -9.800001,1.879997c-4.449999,1.830002 -9.15,2.950005 -13.719999,4.450005c-0.21,10.620003 2.219999,21.299995 7.24,30.68c6.219999,-0.270004 12.42,0.889999 18.640001,0.159996c4.309998,-0.659996 7.66,3.030006 11.889999,2.93c6.009998,0.25 12.110001,-0.649994 18.02,0.850006c4.860001,0.439995 9.839996,1.199997 14.690002,0.639999l-0.370003,1.139999c7.290001,-0.040001 14.349998,2.689995 21.659996,1.82c4.660004,-0.510002 9.290001,0.909996 13.950005,0.269997c3.25,-0.379997 6.529999,-0.369995 9.790001,-0.209999c6.179993,-8.949997 10.209991,-19.339996 11.389999,-30.159996c1.169998,-9 -0.169998,-18.170006 -2.830002,-26.790005c-1.380005,-4.029999 -3.179993,-7.889999 -5.179993,-11.639999c-2.060013,3.650002 -4.130005,7.299999 -6.220009,10.93c-0.059998,-1.799999 -0.110001,-3.599998 -0.220001,-5.389999c-0.199997,-2.91 -0.719994,-5.779999 -1.25,-8.639999c-4.009995,-0.060001 -8.659996,-0.470001 -11.129997,3.379997c-0.300003,-0.329998 -0.879997,-0.98 -1.169998,-1.309998c2.860001,-3.700001 7.650002,-3.060001 11.659996,-4.43c-0.93,-5.220001 -2.549995,-10.290001 -4.419998,-15.24c9.610001,5.249998 19.890007,9.379999 30.659996,11.499998c-3.789993,0.77 -7.23999,2.580002 -10.940002,3.630001c0.020004,2.110001 1.410004,3.810001 2.270004,5.639999c7.270004,14.82 9.25,32.200001 5.279999,48.23c-5.399994,24.07 -24.309998,44.309998 -47.799995,51.690002c-16.770004,5.25 -35.540001,4.360001 -51.580002,-2.940002c-16.599998,-7.399994 -30.049999,-21.43 -36.859999,-38.269997c-6,-14.490005 -6.9,-30.990005 -2.79,-46.100002c5.45,-20.619999 20.739999,-38.280001 40.270002,-46.79z" fill="#231f20"/>
  <path id="svg_3" d="m33.200001,32.060001c17.059998,-15.640001 42.850002,-20.660002 64.52,-12.500002c-0.040001,1.030001 -0.130005,3.08 -0.169998,4.110001c-0.5,0.75 -0.960007,1.530001 -1.380005,2.32l-0.580002,0.42c-1.959999,0.66 -4.159996,0.290001 -6.029999,1.309999c-0.720001,0.67 -1.259995,1.450001 -1.639999,2.360001c-0.25,0.51 -0.75,1.530001 -0.989998,2.050001c-2.900002,0.549999 -5.93,0.779999 -8.809998,0l-1.360001,-0.43c-2.200005,-1.33 -4.580002,-0.200001 -6.849998,0.209999c-3.570007,0.810001 -7.240005,0.43 -10.870003,0.470001c-5.440002,-0.110001 -10.91,0.27 -16.330002,-0.390001l-0.849998,-0.5l-0.84,-0.49c-1.73,0.709999 -3.310001,1.720001 -4.93,2.639999c-0.73,-0.399998 -2.170002,-1.18 -2.889999,-1.579998z" fill="#00bdf3"/>
  <path id="svg_4" d="m98.230003,20.24c0.579994,0.110001 1.759995,0.33 2.349998,0.440001c-1.800003,2.52 -1.040001,5.68 -1.230003,8.549999c-0.549995,-0.16 -1.659996,-0.48 -2.220001,-0.629999c-0.209999,-0.190001 -0.619995,-0.559999 -0.82,-0.74c2.040001,-2.050001 2.010002,-4.940001 1.920006,-7.620001z" fill="#140b08"/>
  <path id="svg_5" d="m87.919998,30.08c0.380005,-0.91 0.919998,-1.690001 1.639999,-2.360001c0.440002,0.210001 1.330002,0.620001 1.770004,0.820002c-2.25,2.039999 -2.950005,5.790001 -6.139999,6.66c-2.25,0.110001 -4.370003,-0.850002 -6.480003,-1.459999c2.57,-0.830002 5.279999,-0.730003 7.93,-1.040001c0.610001,-0.77 1.040001,-1.640001 1.279999,-2.620001z" fill="#221d18"/>
  <path id="svg_6" d="m86.93,32.130001c0.239998,-0.52 0.739998,-1.540001 0.989998,-2.050001c-0.239998,0.98 -0.669998,1.85 -1.279999,2.620001c-2.650002,0.309998 -5.360001,0.209999 -7.93,1.040001c-1.239998,0.149998 -2.489998,0.09 -3.739998,0.099998c1.040001,-0.59 2.089996,-1.16 3.150002,-1.709999c2.879997,0.779999 5.909996,0.549999 8.809998,0z" fill="#626365"/>
  <path id="svg_7" d="m36.09,33.639999c1.619999,-0.919998 3.200001,-1.93 4.93,-2.639999l0.84,0.49l-1.139999,-0.08c-2.380001,2.150002 -4.370003,4.670002 -6.43,7.110001c-3.540001,3.360001 -7.84,5.899998 -12.530001,7.27c3.09,-5.110001 6.98,-9.75 11.440001,-13.73c0.719997,0.399998 2.16,1.18 2.889999,1.579998z" fill="#40c7f4"/>
  <path id="svg_8" d="m69.910004,31.91c2.269997,-0.41 4.649994,-1.539999 6.849998,-0.209999c-2.349998,-1.150002 -4.060005,0.469997 -5.25,2.309998c-2.150002,1.700001 -4.970001,1.510002 -7.550003,1.52c-6.07,-0.110001 -12.139999,0.050003 -18.209999,-0.219997c-1.029999,-1.100002 -2.009998,-2.23 -3.040001,-3.320002c5.420002,0.660002 10.889999,0.280001 16.330002,0.390001c3.629997,-0.040001 7.299995,0.34 10.870003,-0.470001z" fill="#20c4f4"/>
  <path id="svg_9" d="m34.290001,38.52c2.059998,-2.439999 4.049999,-4.959999 6.43,-7.110001l1.139999,0.08l0.849998,0.5c1.030003,1.090002 2.010002,2.219999 3.040001,3.320002c3.279999,3.029999 6.549999,6.259998 10.75,7.989998c0.900002,-0.02 1.810001,-0.029999 2.709999,-0.040001c0.91,0.920002 1.810001,1.870003 2.900002,2.59c1.709999,0.980003 3.409996,2.02 4.75,3.490002c0.389999,0.18 1.18,0.540001 1.57,0.720001c1.870003,1.689999 3.650002,3.579998 5.93,4.699997c5.110001,1.890003 9.57,5.280003 15,6.280003c3.040001,0.779999 6.209999,1.5 8.610001,3.659996c12.57,-0.18 25.32,0.040001 37.589996,2.950005c-1.669998,1.309998 -3.459991,2.439995 -5.300003,3.479996c1.12001,0.760002 2.25,1.520004 3.380005,2.290001c-4.029999,1.110001 -7.889999,2.730003 -11.769997,4.270004c2.75,1.409996 4.009995,4.25 5.790001,6.589996c1.619995,1.190002 3.48999,1.970001 5.25,2.93c-6.030006,2.830002 -13.760002,0.510002 -19.040001,4.980003c-1.370003,-0.350006 -2.740005,-0.740005 -4.100006,-1.130005c4.920006,-1.68 10.090004,-2.259995 15.230003,-2.849998c1.75,-0.120003 3.309998,-0.959999 4.809998,-1.82c-1.889999,-1.080002 -4.329994,-1.540001 -5.629997,-3.419998c-1.449997,-2.090004 -2.970001,-4.130005 -4.900002,-5.809998c3.709999,-1.550003 7.470001,-2.960007 11.320007,-4.130005c-0.87001,-0.659996 -1.730011,-1.32 -2.600006,-1.970001c2.029999,-0.829994 3.949997,-1.899994 5.619995,-3.329994c-9.859993,-0.780006 -19.759995,-1.170006 -29.659996,-1.170006c-5.120003,0.170006 -10.269997,-0.110001 -15.370003,0.520004c-5.159996,-0.200005 -10.82,1.449997 -15.589996,-1.160004c5.419998,-1 11.050003,0.279999 16.379997,-1.290001c-4.899994,-1.439999 -9.32,-4.049995 -14,-6.049995c-3.339996,-1.470001 -5.729996,-4.34 -8.639999,-6.450001c-1.059998,-0.740002 -2.139999,-1.440002 -3.239998,-2.130001c-1.009998,-0.650002 -2.029999,-1.290001 -2.970001,-2.040001c-0.329998,-0.309998 -0.98,-0.93 -1.309998,-1.239998c-1.27,-0.310001 -2.560001,-0.550003 -3.830002,-0.830002c-3.739998,-0.899998 -7.989998,-0.849998 -10.709999,-4.029999c-0.77,1.809998 -1.540001,3.619999 -2.299999,5.439999c-1.310001,-0.549999 -2.200001,-1.489998 -2.120003,-3.009998c0.510002,0.399998 1.530003,1.200001 2.040001,1.599998c0.84,-1.829998 1.670002,-3.649998 2.52,-5.470001c2.23,1.980003 4.799999,3.510002 7.68,4.360001c-1.240002,-1.41 -2.439999,-2.899998 -4.040001,-3.93c-2.790001,-1.869999 -4.57,-4.859997 -7.419998,-6.68c-2.650002,2.5 -5.920002,5.02 -5.360001,9.160004c1.279999,-0.910004 2.540001,-1.850002 3.810001,-2.780003c0.209999,0.91 0.399998,1.82 0.57,2.73l-0.640003,1.07l0.280003,-2.209999c-1.630001,0.93 -3.240002,1.889999 -4.830002,2.880001c-0.09,-1.189999 -0.189999,-2.380001 -0.289997,-3.57c-0.09,-0.98 -0.190002,-1.959999 -0.290001,-2.93z" fill="#211b1d"/>
  <path id="svg_10" d="m71.510002,34.009998c1.189995,-1.84 2.900002,-3.459999 5.25,-2.309998l1.360001,0.43c-1.060005,0.549999 -2.110001,1.119999 -3.150002,1.709999c-1.540001,2.939999 2.290001,5.799999 4.839996,6.57c3.060005,0.41 2.690002,4.619999 5.290001,5.420002c4.450005,0.07 8.480003,-2.160004 12.830002,-2.620003c4.18,-0.439999 7.029999,3.040001 9.959999,5.389999c1.07,-0.629997 2.129997,-1.259998 3.190002,-1.899998c0.290001,0.329998 0.869995,0.98 1.169998,1.309998c-2.809998,3.440002 -8.050003,3.16 -11.599998,1.150002c-1.840004,-1.900002 -3.360001,-5.349998 -6.580002,-3.700001c-4.529999,1.959999 -10.209999,3.25 -14.230003,-0.509998c0.110001,-1.790001 -0.589996,-3.350002 -1.589996,-4.760002c-3.949997,1.280003 -7.199997,-2.399998 -6.739998,-6.18z" fill="#221d18"/>
  <path id="svg_11" d="m63.959999,35.529999c2.580002,-0.009998 5.400002,0.18 7.550003,-1.52c-0.459999,3.780003 2.790001,7.460003 6.739998,6.18c1,1.41 1.699997,2.970001 1.589996,4.760002c-5.899994,-0.420002 -12,-0.920002 -17.729996,0.899998c-1.09,-0.719997 -1.990002,-1.669998 -2.900002,-2.59c-0.899998,0.010002 -1.809998,0.02 -2.709999,0.040001c-4.200001,-1.73 -7.470001,-4.959999 -10.75,-7.989998c6.07,0.27 12.139999,0.109997 18.209999,0.219997z" fill="#4cc9f5"/>
  <path id="svg_12" d="m35.68,43.330002c-0.560001,-4.140003 2.709999,-6.660004 5.360001,-9.160004c2.849998,1.820004 4.629997,4.810001 7.419998,6.68c1.600002,1.030003 2.799999,2.52 4.040001,3.93c-2.880001,-0.849998 -5.450001,-2.379997 -7.68,-4.360001c-0.849998,1.820004 -1.68,3.640003 -2.52,5.470001c-0.509998,-0.399998 -1.529999,-1.200001 -2.040001,-1.599998c-0.049999,-0.260002 -0.149998,-0.760002 -0.199997,-1.010002c-0.170002,-0.91 -0.360001,-1.82 -0.57,-2.73c-1.27,0.93 -2.530003,1.869999 -3.810001,2.780003z" fill="#ffffff"/>
  <path id="svg_13" d="m20.110001,49.029999c5.389999,-1.259998 10.709999,-3.299999 14.470001,-7.579998c0.099998,1.189999 0.199997,2.380001 0.289997,3.57c1.59,-0.990002 3.200001,-1.950001 4.830002,-2.880001l-0.280003,2.209999c-1.299999,2.880001 -4.449997,3.780003 -7.079998,4.970001c-5.469999,2.299999 -10.82,4.880001 -16.08,7.610001c1.18,-2.66 1.969999,-5.630001 3.85,-7.900002z" fill="#c8cacc"/>
  <path id="svg_14" d="m44.68,41.860001c2.720001,3.18 6.970001,3.130001 10.709999,4.029999c-9.849998,4.240002 -19.559998,8.799999 -29.449999,12.950001c-3.91,1.540001 -7.5,4.07 -11.750001,4.599998c0.580001,-2.199997 1.240001,-4.389999 2.070001,-6.509998c5.26,-2.73 10.610001,-5.310001 16.08,-7.610001c2.630001,-1.189999 5.779999,-2.09 7.079998,-4.970001l0.640003,-1.07c0.049999,0.25 0.149998,0.75 0.199997,1.010002c-0.079998,1.52 0.810001,2.459999 2.120003,3.009998c0.759998,-1.82 1.529999,-3.630001 2.299999,-5.439999z" fill="#acaeb0"/>
  <path id="svg_15" d="m62.110001,45.849998c5.729996,-1.82 11.830002,-1.32 17.729996,-0.899998c4.020004,3.759998 9.700005,2.469997 14.230003,0.509998c3.220001,-1.649998 4.739998,1.799999 6.580002,3.700001c3.549995,2.009998 8.790001,2.290001 11.599998,-1.150002c2.470001,-3.849998 7.120003,-3.439999 11.129997,-3.379997c0.530006,2.860001 1.050003,5.73 1.25,8.639999c-9.839996,1.18 -19.779999,0.329998 -29.659996,0.579998c-6.870003,0.240002 -13.849998,-0.769997 -20.610001,0.91c-2.279999,-1.119999 -4.059998,-3.009998 -5.93,-4.699997c-0.389999,-0.18 -1.18,-0.540001 -1.57,-0.720001c-1.340004,-1.470001 -3.040001,-2.509998 -4.75,-3.490002z" fill="#78d2f7"/>
  <path id="svg_16" d="m55.389999,45.889999c1.27,0.279999 2.560001,0.52 3.830002,0.830002c0.329998,0.309998 0.98,0.93 1.309998,1.239998c-15.669998,6.540001 -31.059999,13.68 -46.509998,20.700005c-0.1,-0.700005 -0.3,-2.080002 -0.39,-2.770004c0.16,-0.82 0.349999,-1.639999 0.559999,-2.450001c4.250001,-0.529999 7.840001,-3.059998 11.750001,-4.599998c9.890001,-4.150002 19.6,-8.709999 29.449999,-12.950001z" fill="#959799"/>
  <path id="svg_17" d="m60.529999,47.959999c0.940002,0.75 1.960003,1.389999 2.970001,2.040001c-2.040001,1.150002 -4.09,2.279999 -6.240002,3.23c-10.449997,4.470001 -20.699997,9.380001 -31.119999,13.899998c-4.639999,2.139999 -9.59,3.780006 -13.7,6.900002c0.18,-2.739998 0.570001,-5.470001 1.190001,-8.139999c0.09,0.690002 0.29,2.07 0.39,2.770004c15.449999,-7.020004 30.84,-14.160004 46.509998,-20.700005z" fill="#848689"/>
  <path id="svg_18" d="m124.849998,58.66c2.090004,-3.630001 4.159996,-7.279999 6.220009,-10.93c2,3.75 3.799988,7.610001 5.179993,11.639999c-1.179993,0.34 -2.330002,0.790001 -3.559998,0.860001c-13.510002,0.299999 -27.050003,-1.09 -40.529999,0.150002c-0.700005,0.169998 -2.100006,0.5 -2.800003,0.66c-5.43,-1 -9.889999,-4.389999 -15,-6.280003c6.760002,-1.679996 13.739998,-0.669998 20.610001,-0.91c9.879997,-0.25 19.82,0.600002 29.659996,-0.579998c0.110001,1.790001 0.160004,3.59 0.220001,5.389999z" fill="#8cd8f8"/>
  <path id="svg_19" d="m63.5,50c1.099998,0.689999 2.18,1.389999 3.239998,2.130001c-3.669998,3.93 -9.649998,4.099998 -13.489998,7.91c-0.48,-0.57 -0.970001,-1.130001 -1.450001,-1.68c-7.219997,5.049999 -15.899998,7.279999 -23.369999,11.889999c-5.530001,1.620003 -10.620001,4.470001 -16.16,6.110001c0.04,-0.580002 0.129999,-1.75 0.169999,-2.330002c4.11,-3.119995 9.06,-4.760002 13.7,-6.900002c10.420002,-4.519997 20.670002,-9.429996 31.119999,-13.899998c2.150002,-0.950001 4.200001,-2.079998 6.240002,-3.23z" fill="#757679"/>
  <path id="svg_20" d="m66.739998,52.130001c2.910004,2.110001 5.300003,4.98 8.639999,6.450001c4.68,2 9.100006,4.609997 14,6.049995c-5.329994,1.57 -10.959999,0.290001 -16.379997,1.290001c4.769997,2.610001 10.43,0.959999 15.589996,1.160004l0.780006,0.379997c-2.800003,-0.040001 -5.590004,-0.010002 -8.380005,0.050003c-3.93,0.459999 -7.900002,0.489998 -11.689995,-0.790001c1.559998,-0.630005 3.189995,-1.110001 4.719994,-1.809998c-4.759995,-1.080002 -9.709999,2.309998 -14.069996,-0.820007c-0.57,0.200005 -1.720001,0.600006 -2.290001,0.800003c-1.360001,-0.540001 -2.720001,-1.099998 -3.990002,-1.809998c1.740002,-0.75 3.510002,-1.460003 5.27,-2.170002c-1.889999,-0.32 -3.789997,-0.59 -5.689999,-0.869999c3.84,-3.810001 9.82,-3.98 13.489998,-7.91z" fill="#58595b"/>
  <path id="svg_21" d="m28.43,70.25c7.470001,-4.610001 16.150002,-6.84 23.369999,-11.889999c0.170002,2.049999 1.630001,2.759998 3.619999,2.739998c-0.859997,0.77 -1.709999,1.560001 -2.529999,2.360001c1.16,0.650002 2.34,1.279999 3.510002,1.93c-2.050003,1.050003 -4.280003,1.43 -6.470001,0.599998c-3.450001,-1.549995 -5.740002,2.440002 -9.040001,2.529999c-4.200001,0.340004 -8.200001,2.060005 -12.459999,1.730003z" fill="#626365"/>
  <path id="svg_22" d="m51.799999,58.360001c0.48,0.549999 0.970001,1.110001 1.450001,1.68c1.900002,0.279999 3.799999,0.549999 5.689999,0.869999c-1.759998,0.709999 -3.529999,1.420002 -5.27,2.170002c1.27,0.709999 2.630001,1.269997 3.990002,1.809998c0.849998,0.520004 1.689999,1.040001 2.52,1.580002l-0.920002,1.139999c-0.579998,0.82 -1.109997,1.68 -1.579998,2.57l-1.420002,-0.629997c0.950001,-0.870003 1.900002,-1.730003 2.860001,-2.57c-0.68,-0.400002 -2.039997,-1.190002 -2.719997,-1.590004c-1.170002,-0.650002 -2.350002,-1.279999 -3.510002,-1.93c0.82,-0.799999 1.670002,-1.59 2.529999,-2.360001c-1.989998,0.02 -3.449997,-0.689999 -3.619999,-2.739998z" fill="#a0ddf9"/>
  <path id="svg_23" d="m136.25,59.369999c2.660004,8.619999 4,17.790005 2.830002,26.790005c0.639999,-5.940002 0.279999,-11.920006 -0.880005,-17.770004c-0.660004,-0.190002 -1.979996,-0.559998 -2.639999,-0.739998c-12.269997,-2.910004 -25.019997,-3.130005 -37.589996,-2.950005c-2.400002,-2.159996 -5.57,-2.879997 -8.610001,-3.659996c0.699997,-0.16 2.099998,-0.490002 2.800003,-0.66c13.479996,-1.240002 27.019997,0.149998 40.529999,-0.150002c1.229996,-0.07 2.380005,-0.52 3.559998,-0.860001z" fill="#a0ddf9"/>
  <path id="svg_24" d="m57.66,64.889999c0.57,-0.199997 1.720001,-0.599998 2.290001,-0.800003c4.359997,3.130005 9.310001,-0.259995 14.069996,0.820007c-1.529999,0.699997 -3.159996,1.179993 -4.719994,1.809998c-2.610001,1.669998 -5.25,0.68 -7.560001,-0.910004c-0.390003,0.160004 -1.170002,0.5 -1.560001,0.660004c-0.830002,-0.540001 -1.670002,-1.059998 -2.52,-1.580002z" fill="#211b1d"/>
  <path id="svg_25" d="m60.18,66.470001c0.389999,-0.160004 1.169998,-0.5 1.560001,-0.660004c2.310001,1.590004 4.950001,2.580002 7.560001,0.910004c3.789993,1.279999 7.759995,1.25 11.689995,0.790001c-2.449997,1.889999 -3.5,4.709999 -2.329994,7.659996c-0.760002,0.080002 -2.280006,0.230003 -3.040001,0.300003c-4.300003,-0.700005 -8.660004,-0.900002 -12.980003,-1.5c0.650002,-1 1.43,-1.910004 2.370003,-2.660004c1.900002,-1.199997 -0.970001,-2.149994 -1.990002,-1.399994c-1.41,-0.440002 -3.139999,-0.720001 -3.760002,-2.300003l0.920002,-1.139999z" fill="#91c039"/>
  <path id="svg_26" d="m48.970001,67.559998c3.449997,0.720001 7.049999,1.970001 10.149998,-0.579994c-0.959999,0.839996 -1.91,1.699997 -2.860001,2.57l1.420002,0.629997c-0.450001,1 -0.849998,2.019997 -1.25,3.040001c0.389999,0.18 1.189999,0.540001 1.59,0.729996l0.82,0.360001c3.779999,1.840004 8.030003,2.040001 12.130001,2.490005c3.739998,0.239998 7.010002,2.939995 10.879997,1.949997l0.520004,0.169998l0.57,1.630005c-2.209999,0.049995 -4.410004,0.129997 -6.610001,0.199997c-3.800003,0.040001 -7.730003,-0.43 -11.360001,0.959999c2.449997,1.300003 4.989998,2.440002 7.650002,3.239998c-5.310005,0.889999 -10.230003,3.850006 -15.720001,3.620003c-7.02,0.090004 -14.07,-4.230003 -16.5,-10.940002c-0.780003,-2.529999 -2.460003,-4.540001 -4.700001,-5.919998c4.559998,-1.099998 9.540001,-0.809998 13.27,-4.150002z" fill="#93c139"/>
  <path id="svg_27" d="m88.589996,67.080002c5.100006,-0.630005 10.25,-0.349998 15.370003,-0.520004c-1.529999,1.410004 -3.449997,2.870003 -3.269997,5.200005c0,6.329994 -1.990005,12.470001 -4.810005,18.079994c-2.32,4.590004 -6.399994,8.060005 -8.339996,12.870003c-3.620003,-0.860001 -6.790001,-3.089996 -10.520004,-3.519997c-4.159996,-0.510002 -8.189995,-1.68 -12.099998,-3.150002c4.380005,-1.93 9.190002,-2.700005 13.5,-4.830002c2.730003,-1.349998 5.940002,-2.339996 7.610001,-5.089996c-1.709999,-0.540001 -3.489998,-0.860001 -5.290001,-0.880005c-1.529999,-1.159996 -3.009995,-2.369995 -4.479996,-3.599998l0.809998,-0.019997c3.43,0.159996 6.910004,-0.040001 10.139999,-1.270004c0.080002,-0.330002 0.230003,-1.010002 0.309998,-1.339996c0.670006,-3.760002 1.5,-7.490005 2.82,-11.080002c-0.239998,-0.110001 -0.729996,-0.349998 -0.969994,-0.470001l-0.780006,-0.379997z" fill="#73ad39"/>
  <path id="svg_28" d="m103.959999,66.559998c9.900002,0 19.800003,0.389999 29.659996,1.170006c-1.669998,1.43 -3.589996,2.5 -5.619995,3.329994c0.869995,0.650002 1.729996,1.310005 2.600006,1.970001c-3.850006,1.169998 -7.610008,2.580002 -11.320007,4.130005c1.93,1.679993 3.450005,3.719994 4.900002,5.809998c1.300003,1.879997 3.739998,2.339996 5.629997,3.419998c-1.5,0.860001 -3.059998,1.699997 -4.809998,1.82c-5.139999,0.590004 -10.309998,1.169998 -15.230003,2.849998c1.360001,0.389999 2.730003,0.779999 4.100006,1.130005c0.959999,0.25 2.899994,0.759995 3.860001,1.019997c-3.160004,2.040001 -7.080002,2.959999 -9.640007,5.840004c-2.669998,2.869995 -6.129997,5.360001 -10.159996,5.629997c-3.559998,0.099998 -7,-1.040001 -10.389999,-1.970001c1.940002,-4.809998 6.019997,-8.279999 8.339996,-12.870003c2.82,-5.609993 4.810005,-11.75 4.810005,-18.079994c-0.18,-2.330002 1.739998,-3.790001 3.269997,-5.200005z" fill="#5ea138"/>
  <path id="svg_29" d="m57.68,70.18c0.470001,-0.889999 1,-1.75 1.579998,-2.57c0.620003,1.580002 2.350002,1.860001 3.760002,2.300003c0.5,0.349998 1.490002,1.049995 1.990002,1.399994c-0.940002,0.75 -1.720001,1.660004 -2.370003,2.660004c3.709999,1.279999 7.620003,1.75 11.529999,1.540001c2.419998,1.389999 4.990005,2.479996 7.68,3.239998c-3.869995,0.989998 -7.139999,-1.709999 -10.879997,-1.949997c-4.099998,-0.450005 -8.350002,-0.650002 -12.130001,-2.490005c2,-0.189995 1.150002,-3.610001 -0.599998,-2.169998c-0.050003,0.449997 -0.170002,1.349998 -0.220001,1.809998c-0.400002,-0.189995 -1.200001,-0.549995 -1.59,-0.729996c0.400002,-1.020004 0.799999,-2.040001 1.25,-3.040001z" fill="#617367"/>
  <path id="svg_30" d="m80.989998,67.510002c2.790001,-0.060005 5.580002,-0.090004 8.380005,-0.050003c0.239998,0.120003 0.729996,0.360001 0.969994,0.470001c-1.32,3.589996 -2.149994,7.32 -2.82,11.080002c-1.059998,-0.279999 -2.109993,-0.560005 -3.169998,-0.840004c-1.369995,-0.379997 -2.760002,-0.689995 -4.159996,-0.919998c-0.380005,-0.519997 -1.150002,-1.559998 -1.529999,-2.080002c-1.170006,-2.949997 -0.120003,-5.769997 2.329994,-7.659996z" fill="#80b639"/>
  <path id="svg_31" d="m135.559998,67.650002c0.660004,0.18 1.979996,0.549995 2.639999,0.739998c1.160004,5.849998 1.520004,11.830002 0.880005,17.770004c-1.180008,10.82 -5.210007,21.209999 -11.389999,30.159996c-3.260002,-0.159996 -6.540001,-0.169998 -9.790001,0.209999c-4.660004,0.639999 -9.290001,-0.779999 -13.950005,-0.269997c-7.309998,0.869995 -14.369995,-1.860001 -21.659996,-1.82l0.370003,-1.139999l0.349998,-0.290001c2.659996,-0.880005 5.369995,-1.650002 7.919998,-2.82c-3.43,-1.360001 -7.059998,-1.980003 -10.639999,-2.760002c-1.169998,-0.540001 -2.340004,-1.099998 -3.489998,-1.68c1.079994,-1.559998 2.25,-3.050003 3.419998,-4.529999c4.040001,1.619995 8.220001,2.889999 12.389999,4.159996c3.519997,1.230003 7.239998,0.330002 10.860001,0.280006c1.389999,-2.510002 3.699997,-4.150002 6.510002,-4.710007c2.279999,-3.909996 6.799995,-5.059998 10.57,-6.989998c-0.940002,-0.25 -1.880005,-0.510002 -2.82,-0.75c-0.960007,-0.260002 -2.900002,-0.769997 -3.860001,-1.019997c5.279999,-4.470001 13.009995,-2.150002 19.040001,-4.980003c-1.76001,-0.959999 -3.630005,-1.739998 -5.25,-2.93c-1.780006,-2.339996 -3.040001,-5.18 -5.790001,-6.589996c3.879997,-1.540001 7.739998,-3.160004 11.769997,-4.270004c-1.130005,-0.769997 -2.259995,-1.529999 -3.380005,-2.290001c1.840012,-1.040001 3.630005,-2.169998 5.300003,-3.479996z" fill="#00bdf2"/>
  <path id="svg_32" d="m63.02,69.910004c1.02,-0.75 3.890003,0.199997 1.990002,1.399994c-0.5,-0.349998 -1.490002,-1.049995 -1.990002,-1.399994z" fill="#75909c"/>
  <path id="svg_33" d="m25.9,73.589996c3.059999,-1.579994 6.570002,-1.009995 9.800001,-1.879997c2.239998,1.379997 3.919998,3.389999 4.700001,5.919998c2.43,6.709999 9.48,11.030006 16.5,10.940002c5.489998,0.230003 10.409996,-2.730003 15.720001,-3.620003c1.339996,0.260002 2.669998,0.530006 4,0.810005c0.589996,0.18 1.75,0.549995 2.329994,0.729996c-0.739998,1.82 -2.82,1.849998 -4.449997,2.300003c-5.540001,1.139999 -10.849998,3.110001 -16.27,4.659996c-3.630001,1.030006 -6.959999,2.889999 -9.869999,5.270004c-5.540001,-1.910004 -10.740002,-5.010002 -14.580002,-9.5c-3.82,-4.550003 -4.789999,-10.650002 -7.879999,-15.630005z" fill="#83b739"/>
  <path id="svg_34" d="m58.240002,72.139999c1.75,-1.440002 2.599998,1.980003 0.599998,2.169998l-0.82,-0.360001c0.049999,-0.459999 0.169998,-1.360001 0.220001,-1.809998z" fill="#86adbf"/>
  <path id="svg_35" d="m12.18,78.040001c4.57,-1.5 9.27,-2.620003 13.719999,-4.450005c3.09,4.980003 4.059999,11.080002 7.879999,15.630005c3.84,4.489998 9.040001,7.589996 14.580002,9.5c4.040001,3.559998 9.380001,4.839996 14.360001,6.510002c8.400002,2.099998 17.07,2.859993 25.479996,4.879997c-1.849998,0.729996 -3.789993,1.409996 -5.189995,2.900002l-0.349998,0.290001c-4.850006,0.559998 -9.830002,-0.200005 -14.690002,-0.639999c-5.91,-1.5 -12.010002,-0.600006 -18.02,-0.850006c-4.23,0.100006 -7.580002,-3.589996 -11.889999,-2.93c-6.220001,0.730003 -12.420002,-0.43 -18.640001,-0.159996c-5.02,-9.380005 -7.45,-20.059998 -7.24,-30.68z" fill="#6fab39"/>
  <path id="svg_36" d="m74.169998,75.510002c-3.909996,0.209999 -7.82,-0.260002 -11.529999,-1.540001c4.32,0.599998 8.68,0.799995 12.980003,1.5c1.329994,1.019997 2.879997,1.690002 4.57,1.779999c1.399994,0.230003 2.790001,0.540001 4.159996,0.919998c0.68,0.389999 2.050003,1.18 2.730003,1.57c-0.520004,0.230003 -1.560005,0.700005 -2.090004,0.940002c-0.799995,-0.690002 -1.68,-1.279999 -2.619995,-1.760002l-0.520004,-0.169998c-2.689995,-0.760002 -5.260002,-1.849998 -7.68,-3.239998z" fill="#4cc9f5"/>
  <path id="svg_37" d="m75.620003,75.470001c0.759995,-0.07 2.279999,-0.220001 3.040001,-0.300003c0.379997,0.520004 1.149994,1.560005 1.529999,2.080002c-1.690002,-0.089996 -3.240005,-0.760002 -4.57,-1.779999z" fill="#627b43"/>
  <path id="svg_38" d="m84.349998,78.169998c1.060005,0.279999 2.110001,0.560005 3.169998,0.840004c-0.079994,0.329994 -0.229996,1.009995 -0.309998,1.339996c-3.229996,1.230003 -6.709999,1.43 -10.139999,1.270004c1.970001,-0.310005 3.919998,-0.690002 5.870003,-1.07l-0.57,-1.630005c0.939995,0.480003 1.82,1.07 2.619995,1.760002c0.529999,-0.239998 1.57,-0.709999 2.090004,-0.940002c-0.68,-0.389999 -2.050003,-1.18 -2.730003,-1.57z" fill="#231f20"/>
  <path id="svg_39" d="m64.970001,81.709999c3.629997,-1.389999 7.559998,-0.919998 11.360001,-0.959999c-3.340004,0.190002 -6.68,0.5 -9.959999,1.160004c3.279999,1.639999 6.759995,2.779999 10.25,3.849998c-1.330002,-0.279999 -2.660004,-0.550003 -4,-0.810005c-2.660004,-0.799995 -5.200005,-1.939995 -7.650002,-3.239998z" fill="#231f20"/>
  <path id="svg_40" d="m76.330002,80.75c2.199997,-0.07 4.400002,-0.150002 6.610001,-0.199997c-1.950005,0.379997 -3.900002,0.759995 -5.870003,1.07l-0.809998,0.019997c-1.970001,0.050003 -3.940002,0.169998 -5.910004,0.309998c3.270004,1.639999 6.790001,2.690002 10.389999,3.290001c1.529999,0.330002 2.980003,0.910004 4.420006,1.520004c-4.480003,3.150002 -9.570007,5.339996 -14.810005,6.869995c0.130005,-0.839996 0.389999,-2.529999 0.520004,-3.379997c3.399994,-0.940002 6.939995,-1.440002 10.119995,-3.040001c-0.509995,-0.18 -1.529999,-0.540001 -2.040001,-0.720001c-0.579994,-0.18 -1.739998,-0.549995 -2.329994,-0.729996c-3.490005,-1.07 -6.970001,-2.209999 -10.25,-3.849998c3.279999,-0.660004 6.619995,-0.970001 9.959999,-1.160004z" fill="#4cc9f5"/>
  <path id="svg_41" d="m70.349998,81.949997c1.970001,-0.139999 3.940002,-0.259995 5.910004,-0.309998c1.470001,1.230003 2.949997,2.440002 4.479996,3.599998c-3.599998,-0.599998 -7.119995,-1.650002 -10.389999,-3.290001z" fill="#5c743a"/>
  <path id="svg_42" d="m80.739998,85.239998c1.800003,0.020004 3.580002,0.340004 5.290001,0.880005c-1.669998,2.75 -4.879997,3.739998 -7.610001,5.089996c-4.309998,2.129997 -9.119995,2.900002 -13.5,4.830002c3.910004,1.470001 7.940002,2.639999 12.099998,3.150002c3.730003,0.43 6.900002,2.659996 10.520004,3.519997c3.389999,0.93 6.830002,2.07 10.389999,1.970001c4.029999,-0.269997 7.489998,-2.760002 10.159996,-5.629997c2.560005,-2.880005 6.480003,-3.800003 9.640007,-5.840004c0.939995,0.239998 1.879997,0.5 2.82,0.75c-3.770004,1.93 -8.290001,3.080002 -10.57,6.989998c-2.810005,0.560005 -5.120003,2.200005 -6.510002,4.710007c-3.620003,0.049995 -7.340004,0.949997 -10.860001,-0.280006c-4.169998,-1.269997 -8.349998,-2.540001 -12.389999,-4.159996c-3.770004,-1.910004 -8.010002,-2.110001 -12.050003,-2.989998c-1.669998,-0.610001 -3.189995,-1.520004 -4.679996,-2.460007c2.139996,-1.129997 4.529995,-1.57 6.859997,-2.139999c5.239998,-1.529999 10.330002,-3.719994 14.810005,-6.869995c-1.440002,-0.610001 -2.890007,-1.190002 -4.420006,-1.520004z" fill="#221d18"/>
  <path id="svg_43" d="m78.949997,86.489998c0.510002,0.18 1.530006,0.540001 2.040001,0.720001c-3.18,1.599998 -6.720001,2.099998 -10.119995,3.040001c-7.240002,2.5 -15.260002,3.769997 -21.320004,8.790001c4.470001,2.790001 9.68,3.909996 14.579998,5.68c5.270004,1.529999 10.82,1.529999 16.160004,2.709999c3.580002,0.779999 7.209999,1.400002 10.639999,2.760002c-2.550003,1.169998 -5.260002,1.939995 -7.919998,2.82c1.400002,-1.490005 3.339996,-2.170006 5.189995,-2.900002c-8.409996,-2.020004 -17.079994,-2.779999 -25.479996,-4.879997c-4.98,-1.670006 -10.32,-2.950005 -14.360001,-6.510002c2.91,-2.380005 6.239998,-4.239998 9.869999,-5.270004c5.420002,-1.549995 10.73,-3.519997 16.27,-4.659996c1.629997,-0.450005 3.709999,-0.480003 4.449997,-2.300003z" fill="#231f20"/>
  <path id="svg_44" d="m49.549999,99.040001c6.060001,-5.020004 14.080002,-6.290001 21.320004,-8.790001c-0.130005,0.849998 -0.389999,2.540001 -0.520004,3.379997c-2.330002,0.57 -4.720001,1.010002 -6.859997,2.139999c1.490002,0.940002 3.009998,1.850006 4.679996,2.460007c-2.110001,1.629997 -3.860001,3.719994 -4.040001,6.489998c-4.899998,-1.770004 -10.109997,-2.889999 -14.579998,-5.68z" fill="#75d1f6"/>
  <path id="svg_45" d="m64.129997,104.720001c0.18,-2.770004 1.93,-4.860001 4.040001,-6.489998c4.040001,0.879997 8.279999,1.079994 12.050003,2.989998c-1.169998,1.479996 -2.340004,2.970001 -3.419998,4.529999c1.149994,0.580002 2.32,1.139999 3.489998,1.68c-5.340004,-1.18 -10.889999,-1.18 -16.160004,-2.709999z" fill="#46c8f5"/>
  <path id="svg_46" d="m20.85,111.260002c4.709999,-0.120003 9.43,0.290001 14.15,0.099998c3.189999,-0.07 6.619999,-0.510002 9.490002,1.229996c4.399998,2.560005 9.669998,1.540001 14.5,1.570007c5.420002,-0.540001 10.59,1.789993 16.009998,1.32c3.440002,-0.450005 6.690002,0.899994 9.290001,3.07c-11.75,0.529999 -23.52,0.209999 -35.280003,0.18c-2.59,-0.010002 -5.119999,0.529999 -7.649998,1c-4.75,-0.900002 -9.83,-1.770004 -14.440001,0.379997c-2.389999,-2.68 -4.35,-5.709999 -6.07,-8.849998z" fill="#6f5a39"/>
  <path id="svg_47" d="m82.900002,115.07c7.029999,1.220001 14.150002,2.080002 21.18,3.080002c3.809998,-1.529999 7.919998,-0.620003 11.900002,-0.739998c3.739998,-0.070007 7.469994,-0.5 11.229996,-0.440002c-0.949997,1.159996 -1.889999,2.32 -2.830002,3.5c-11.309998,-0.090004 -22.659996,-0.599998 -33.949997,0.299995c-2.540001,-1.849998 -5.120003,-3.68 -7.529999,-5.699997z" fill="#00a7e5"/>
  <path id="svg_48" d="m41.360001,119.730003c2.529999,-0.470001 5.059998,-1.010002 7.649998,-1c11.760002,0.029999 23.530003,0.349998 35.280003,-0.18c2.370003,1.769997 4.879997,3.379997 6.93,5.529999c-1.590004,0.379997 -3.169998,0.759995 -4.760002,1.159996l-0.25,0.060005c-1.82,-1.639999 -3.459999,-4.260002 -6.260002,-3.850006c-6.039993,-0.059998 -12.089996,0.139999 -18.079998,0.950005c-4.049999,0.720001 -8.139999,1.739998 -12.279999,1.25c-0.889999,-0.220001 -1.759998,-0.470001 -2.619999,-0.75c0.52,-0.080002 1.549999,-0.239998 2.07,-0.32c-2.690002,-0.550003 -5.27,-1.529999 -7.68,-2.849998z" fill="#7c694d"/>
  <path id="svg_49" d="m90.43,120.769997c11.290001,-0.899994 22.639999,-0.389999 33.949997,-0.299995c-2.110001,2.080002 -3.93,4.860001 -6.629997,6.119995c-6.269997,-1.5 -13.010002,-1.809998 -19.230003,0.100006c-2.689995,-1.980003 -5.75,-3.480003 -8.089996,-5.920006z" fill="#008abd"/>
  <path id="svg_50" d="m28.82,121.910004c2.710001,-0.380005 5.389999,-1.030006 8.119999,-1.220001c3.400002,0.419998 6.77,1.139999 10.030003,2.209999c0.860001,0.279999 1.73,0.529999 2.619999,0.75c8.380001,1.939995 17.049999,0.639999 25.490002,-0.260002c3.580002,-0.470001 6.720001,1.739998 9.43,3.779999c-8.120003,1.290009 -16.349998,0.370003 -24.52,0.620003c-8.190002,0.269997 -16.440002,-0.580002 -24.580002,0.659996l-0.240002,0.040009c-2.219997,-2.100006 -4.549997,-4.100006 -6.349998,-6.580002z" fill="#8a7b64"/>
  <path id="svg_51" d="m86.459999,125.239998c1.590004,-0.400002 3.169998,-0.779999 4.760002,-1.159996c5.459999,3.409996 10.029999,8.459991 16.409996,10.179993c-1.009995,0.570007 -1.989998,2.220001 -3.329994,1.460007c-6.560005,-2.320007 -12.980003,-5.339996 -17.840004,-10.480003z" fill="#948774"/>
  <path id="svg_52" d="m98.519997,126.690002c6.220001,-1.910004 12.960007,-1.600006 19.230003,-0.100006c-1.5,2.680008 -4.580002,3.860001 -6.830002,5.800003c-4.580002,-0.550003 -9.239998,-2.190002 -12.400002,-5.699997z" fill="#006288"/>
  <path id="svg_53" d="m59.990002,127.790001c8.170002,-0.25 16.399998,0.670006 24.52,-0.620003c5.400002,4.369995 11.889999,7.050003 18.279999,9.610001c-1.800003,2.100006 -4.529999,-0.610001 -6.690002,-0.910004c-7.68,-1.869995 -14.790001,-7.269989 -23.040001,-5.319992c-8.259995,1.75 -16.709999,1.410004 -25.059998,0.669998c-4.25,-0.580002 -9.490002,1.059998 -12.59,-2.770004c8.139999,-1.239998 16.389999,-0.389999 24.580002,-0.659996z" fill="#968a7a"/>
  <path id="svg_54" d="m63.07,132.929993c7.870003,-0.549988 16.410004,-2.279999 23.720001,1.660004c-5.540001,2.839996 -11.900002,0.889999 -17.82,1.309998c-6.600002,0.480011 -13.5,-1.179993 -19.84,1.230011c-2.5,-1.190002 -4.970001,-2.470001 -7.389999,-3.830002c7.109997,-0.190002 14.239998,0.399994 21.329998,-0.37001z" fill="#a7a097"/>
  <path id="svg_55" d="m86.790001,134.589996l0.18,-0.080002c2.629997,1.270004 5.869995,1.279999 8.190002,3.12001c-5.480003,2.269989 -11.460007,1.279999 -17.200005,1.269989c-5.650002,-0.139999 -11.299995,0.340012 -16.93,-0.12999c-2.289997,-0.220001 -4.599998,-0.100006 -6.860001,0.389999c-1.699997,-0.62001 -3.379997,-1.300003 -5.039997,-2.029999c6.34,-2.410004 13.239998,-0.75 19.84,-1.230011c5.919998,-0.419998 12.279999,1.529999 17.82,-1.309998z" fill="#b0adaa"/>
  <path id="svg_56" d="m54.169998,139.160004c2.260002,-0.490005 4.570004,-0.610001 6.860001,-0.389999c5.630005,0.470001 11.279999,-0.01001 16.93,0.12999c5.739998,0.01001 11.720001,1 17.200005,-1.269989c1.029999,0.259995 3.07,0.779999 4.089996,1.039993c-14.379997,5.350006 -30.620003,5.900009 -45.080002,0.490005z" fill="#bcbdbf"/>
 </g>
</svg>